<svg width="3060" height="525" viewBox="0 0 3060 525" fill="none" xmlns="http://www.w3.org/2000/svg">
<g clip-path="url(#clip0_136_158)">
<path d="M702.244 252.532C702.244 236.948 705.171 221.486 711.027 206.146C716.882 190.563 725.421 176.684 736.643 164.509C747.866 152.334 761.528 142.473 777.63 134.925C793.732 127.376 812.03 123.602 832.524 123.602C856.921 123.602 878.024 128.837 895.834 139.307C913.888 149.778 927.306 163.413 936.089 180.214L889.979 212.355C887.051 205.538 883.27 199.937 878.634 195.554C874.243 190.928 869.363 187.276 863.996 184.597C858.629 181.675 853.139 179.727 847.528 178.753C841.917 177.536 836.427 176.927 831.06 176.927C819.593 176.927 809.591 179.24 801.052 183.867C792.513 188.493 785.437 194.459 779.826 201.763C774.215 209.068 770.067 217.347 767.384 226.6C764.7 235.852 763.358 245.227 763.358 254.723C763.358 264.95 764.944 274.811 768.116 284.308C771.287 293.804 775.801 302.204 781.656 309.509C787.755 316.814 794.952 322.658 803.247 327.041C811.786 331.18 821.301 333.25 831.792 333.25C837.159 333.25 842.649 332.641 848.26 331.424C854.115 329.963 859.604 327.893 864.728 325.215C870.095 322.293 874.975 318.64 879.366 314.257C883.757 309.631 887.295 304.031 889.979 297.456L939.017 326.31C935.113 335.806 929.258 344.329 921.451 351.877C913.888 359.425 905.105 365.756 895.102 370.87C885.099 375.983 874.487 379.879 863.264 382.557C852.041 385.236 841.063 386.575 830.328 386.575C811.542 386.575 794.22 382.801 778.362 375.252C762.748 367.461 749.208 357.234 737.741 344.572C726.519 331.911 717.736 317.544 711.393 301.474C705.293 285.403 702.244 269.089 702.244 252.532Z" fill="#8F4D3D"/>
<path d="M1055.93 388.036C1039.58 388.036 1024.95 385.357 1012.02 380C999.33 374.644 988.595 367.461 979.812 358.451C971.029 349.199 964.32 338.607 959.685 326.675C955.293 314.501 953.097 301.839 953.097 288.691C953.097 275.542 955.293 263.002 959.685 251.071C964.32 238.896 971.029 228.304 979.812 219.295C988.595 210.042 999.33 202.737 1012.02 197.381C1024.95 191.78 1039.58 188.98 1055.93 188.98C1072.28 188.98 1086.79 191.78 1099.48 197.381C1112.17 202.737 1122.9 210.042 1131.68 219.295C1140.47 228.304 1147.18 238.896 1151.81 251.071C1156.45 263.002 1158.76 275.542 1158.76 288.691C1158.76 301.839 1156.45 314.501 1151.81 326.675C1147.42 338.607 1140.83 349.199 1132.05 358.451C1123.27 367.461 1112.41 374.644 1099.48 380C1086.79 385.357 1072.28 388.036 1055.93 388.036ZM1013.11 288.691C1013.11 303.787 1017.14 315.962 1025.19 325.215C1033.24 334.224 1043.49 338.728 1055.93 338.728C1062.03 338.728 1067.64 337.511 1072.76 335.076C1077.89 332.641 1082.28 329.232 1085.94 324.849C1089.84 320.466 1092.89 315.231 1095.09 309.144C1097.28 302.813 1098.38 295.995 1098.38 288.691C1098.38 273.594 1094.36 261.541 1086.31 252.532C1078.25 243.279 1068.13 238.653 1055.93 238.653C1049.83 238.653 1044.1 239.87 1038.73 242.305C1033.61 244.74 1029.09 248.149 1025.19 252.532C1021.53 256.915 1018.6 262.271 1016.41 268.602C1014.21 274.69 1013.11 281.386 1013.11 288.691Z" fill="#8F4D3D"/>
<path d="M1279.29 388.036C1262.95 388.036 1248.31 385.357 1235.38 380C1222.69 374.644 1211.96 367.461 1203.17 358.451C1194.39 349.199 1187.68 338.607 1183.05 326.675C1178.65 314.501 1176.46 301.839 1176.46 288.691C1176.46 275.542 1178.65 263.002 1183.05 251.071C1187.68 238.896 1194.39 228.304 1203.17 219.295C1211.96 210.042 1222.69 202.737 1235.38 197.381C1248.31 191.78 1262.95 188.98 1279.29 188.98C1295.64 188.98 1310.15 191.78 1322.84 197.381C1335.53 202.737 1346.26 210.042 1355.04 219.295C1363.83 228.304 1370.54 238.896 1375.17 251.071C1379.81 263.002 1382.13 275.542 1382.13 288.691C1382.13 301.839 1379.81 314.501 1375.17 326.675C1370.78 338.607 1364.19 349.199 1355.41 358.451C1346.63 367.461 1335.77 374.644 1322.84 380C1310.15 385.357 1295.64 388.036 1279.29 388.036ZM1236.48 288.691C1236.48 303.787 1240.5 315.962 1248.55 325.215C1256.6 334.224 1266.85 338.728 1279.29 338.728C1285.39 338.728 1291 337.511 1296.13 335.076C1301.25 332.641 1305.64 329.232 1309.3 324.849C1313.2 320.466 1316.25 315.231 1318.45 309.144C1320.65 302.813 1321.74 295.995 1321.74 288.691C1321.74 273.594 1317.72 261.541 1309.67 252.532C1301.62 243.279 1291.49 238.653 1279.29 238.653C1273.19 238.653 1267.46 239.87 1262.09 242.305C1256.97 244.74 1252.46 248.149 1248.55 252.532C1244.89 256.915 1241.96 262.271 1239.77 268.602C1237.57 274.69 1236.48 281.386 1236.48 288.691Z" fill="#8F4D3D"/>
<path d="M1540.35 384.383L1490.21 307.318L1469.72 328.502V384.383H1411.16V117.758H1469.72V272.255L1534.49 192.632H1596.7L1527.54 275.177L1602.56 384.383H1540.35Z" fill="#8F4D3D"/>
<path d="M1619.52 384.383V192.632H1678.07V384.383H1619.52Z" fill="#8F4D3D"/>
<path d="M1810.01 388.036C1793.91 388.036 1779.39 385.479 1766.46 380.366C1753.77 375.009 1742.92 367.826 1733.89 358.817C1725.11 349.807 1718.4 339.459 1713.76 327.771C1709.13 315.84 1706.81 303.422 1706.81 290.517C1706.81 276.638 1709.13 263.611 1713.76 251.436C1718.4 239.018 1725.11 228.182 1733.89 218.93C1742.67 209.677 1753.41 202.372 1766.09 197.015C1779.02 191.658 1793.66 188.98 1810.01 188.98C1826.35 188.98 1840.87 191.658 1853.56 197.015C1866.24 202.372 1876.98 209.677 1885.76 218.93C1894.54 227.939 1901.13 238.409 1905.52 250.34C1910.16 262.271 1912.47 274.811 1912.47 287.96C1912.47 291.369 1912.35 294.778 1912.11 298.187C1911.86 301.352 1911.5 304.152 1911.01 306.587H1769.02C1770 319.492 1774.63 329.354 1782.93 336.172C1791.47 342.746 1801.1 346.033 1811.84 346.033C1820.38 346.033 1828.55 343.964 1836.36 339.824C1844.41 335.685 1849.77 330.084 1852.46 323.023L1902.23 336.902C1894.67 351.999 1882.95 364.295 1867.1 373.791C1851.24 383.288 1832.21 388.036 1810.01 388.036ZM1850.63 270.429C1849.41 258.254 1845.02 248.636 1837.45 241.575C1829.89 234.513 1820.5 230.983 1809.28 230.983C1797.81 230.983 1788.29 234.635 1780.73 241.94C1773.41 249.001 1769.14 258.497 1767.92 270.429H1850.63Z" fill="#8F4D3D"/>
<path d="M1928.77 252.532C1928.77 236.948 1931.69 221.486 1937.55 206.146C1943.4 190.563 1951.94 176.684 1963.17 164.509C1974.39 152.334 1988.05 142.473 2004.15 134.925C2020.25 127.376 2038.55 123.602 2059.05 123.602C2083.44 123.602 2104.55 128.837 2122.36 139.307C2140.41 149.778 2153.83 163.413 2162.61 180.214L2116.5 212.355C2113.57 205.538 2109.79 199.937 2105.16 195.554C2100.76 190.928 2095.89 187.276 2090.52 184.597C2085.15 181.675 2079.66 179.727 2074.05 178.753C2068.44 177.536 2062.95 176.927 2057.58 176.927C2046.12 176.927 2036.11 179.24 2027.57 183.867C2019.03 188.493 2011.96 194.459 2006.35 201.763C2000.74 209.068 1996.59 217.347 1993.91 226.6C1991.22 235.852 1989.88 245.227 1989.88 254.723C1989.88 264.95 1991.47 274.811 1994.64 284.308C1997.81 293.804 2002.32 302.204 2008.18 309.509C2014.28 316.814 2021.47 322.658 2029.77 327.041C2038.31 331.18 2047.82 333.25 2058.31 333.25C2063.68 333.25 2069.17 332.641 2074.78 331.424C2080.64 329.963 2086.13 327.893 2091.25 325.215C2096.62 322.293 2101.5 318.64 2105.89 314.257C2110.28 309.631 2113.82 304.031 2116.5 297.456L2165.54 326.31C2161.64 335.806 2155.78 344.329 2147.97 351.877C2140.41 359.425 2131.63 365.756 2121.62 370.87C2111.62 375.983 2101.01 379.879 2089.79 382.557C2078.56 385.236 2067.58 386.575 2056.85 386.575C2038.06 386.575 2020.74 382.801 2004.88 375.252C1989.27 367.461 1975.73 357.234 1964.26 344.572C1953.04 331.911 1944.26 317.544 1937.91 301.474C1931.82 285.403 1928.77 269.089 1928.77 252.532Z" fill="#8F4D3D"/>
<path d="M2376.14 384.383H2317.58V276.638C2317.58 264.219 2315.14 255.088 2310.27 249.245C2305.39 243.401 2298.68 240.479 2290.14 240.479C2286.72 240.479 2282.94 241.331 2278.79 243.036C2274.89 244.496 2270.99 246.81 2267.08 249.975C2263.42 252.897 2260.01 256.428 2256.84 260.567C2253.66 264.706 2251.22 269.333 2249.52 274.446V384.383H2190.96V117.758H2249.52V224.774C2256.59 213.329 2265.86 204.564 2277.33 198.476C2289.04 192.145 2301.85 188.98 2315.75 188.98C2328.69 188.98 2339.05 191.293 2346.86 195.92C2354.91 200.302 2361.01 206.025 2365.16 213.086C2369.55 219.904 2372.48 227.695 2373.94 236.461C2375.41 244.983 2376.14 253.384 2376.14 261.663V384.383Z" fill="#8F4D3D"/>
<path d="M2415.04 384.383V192.632H2473.59V384.383H2415.04Z" fill="#8F4D3D"/>
<path d="M2817.42 384.383H2758.87V276.638C2758.87 263.976 2756.55 254.845 2751.91 249.245C2747.28 243.401 2741.3 240.479 2733.98 240.479C2730.08 240.479 2726.05 241.331 2721.91 243.036C2718 244.74 2714.34 247.175 2710.93 250.34C2707.51 253.262 2704.34 256.793 2701.41 260.932C2698.73 265.072 2696.53 269.576 2694.82 274.446V384.383H2636.27V276.638C2636.27 263.976 2633.95 254.845 2629.32 249.245C2624.68 243.401 2618.71 240.479 2611.39 240.479C2603.58 240.479 2595.89 243.644 2588.33 249.975C2581.01 256.062 2575.65 264.219 2572.23 274.446V384.383H2513.68V192.632H2566.37V224.774C2573.45 213.086 2582.96 204.198 2594.92 198.111C2607.12 192.024 2621.27 188.98 2637.37 188.98C2645.42 188.98 2652.37 189.954 2658.23 191.902C2664.33 193.85 2669.57 196.528 2673.97 199.937C2678.36 203.346 2681.89 207.364 2684.58 211.99C2687.26 216.373 2689.21 221.121 2690.43 226.234C2697.75 214.303 2707.39 205.172 2719.34 198.842C2731.3 192.267 2744.96 188.98 2760.33 188.98C2772.53 188.98 2782.29 191.293 2789.61 195.92C2797.17 200.302 2803.03 206.146 2807.17 213.451C2811.32 220.512 2814 228.304 2815.22 236.826C2816.69 245.349 2817.42 253.628 2817.42 261.663V384.383Z" fill="#8F4D3D"/>
<path d="M2977.18 388.036C2962.55 388.036 2949.86 384.992 2939.13 378.905C2928.39 372.817 2920.1 364.295 2914.24 353.338V462.18H2855.69V192.632H2906.56V223.678C2913.63 212.721 2922.41 204.198 2932.9 198.111C2943.64 192.024 2956.33 188.98 2970.96 188.98C2983.89 188.98 2995.73 191.537 3006.46 196.65C3017.44 201.763 3026.83 208.825 3034.64 217.834C3042.69 226.6 3048.91 237.07 3053.3 249.245C3057.94 261.176 3060.26 274.081 3060.26 287.96C3060.26 302.326 3058.18 315.597 3054.04 327.771C3049.89 339.946 3044.15 350.538 3036.84 359.547C3029.52 368.313 3020.73 375.252 3010.49 380.366C3000.24 385.479 2989.14 388.036 2977.18 388.036ZM2957.42 338.728C2963.77 338.728 2969.5 337.389 2974.62 334.711C2979.99 331.789 2984.63 328.015 2988.53 323.388C2992.43 318.762 2995.36 313.405 2997.31 307.318C2999.51 300.987 3000.61 294.413 3000.61 287.595C3000.61 280.533 2999.39 274.081 2996.95 268.237C2994.75 262.15 2991.58 256.915 2987.43 252.532C2983.53 248.149 2978.65 244.74 2972.79 242.305C2967.18 239.87 2961.08 238.653 2954.5 238.653C2946.44 238.653 2938.64 241.088 2931.07 245.957C2923.76 250.584 2918.14 256.915 2914.24 264.95V304.396C2918.14 314.136 2924 322.293 2931.81 328.867C2939.86 335.441 2948.4 338.728 2957.42 338.728Z" fill="#8F4D3D"/>
<path d="M1682.11 146.183C1682.11 163.724 1667.87 177.943 1650.29 177.943C1632.72 177.943 1618.47 163.724 1618.47 146.183C1618.47 128.643 1632.72 114.423 1650.29 114.423C1667.87 114.423 1682.11 128.643 1682.11 146.183Z" fill="#8F4D3D"/>
<path d="M2477.67 146.183C2477.67 163.724 2463.42 177.943 2445.85 177.943C2428.27 177.943 2414.03 163.724 2414.03 146.183C2414.03 128.643 2428.27 114.423 2445.85 114.423C2463.42 114.423 2477.67 128.643 2477.67 146.183Z" fill="#8F4D3D"/>
<g clip-path="url(#clip1_136_158)">
<path d="M437.192 4.52824C478.057 29.5757 512.083 64.6754 535.64 106.006C559.492 147.876 572.115 195.437 572.115 243.538C572.115 283.457 563.798 322.004 547.334 358.142C531.503 392.909 509.002 423.772 480.463 449.817C451.883 475.903 418.87 495.633 382.395 508.51C351.451 519.434 319.239 524.959 286.395 524.959C279.05 524.959 271.662 524.668 264.232 524.128C225.182 521.221 187.862 510.67 153.287 492.767C119.852 475.446 90.5538 452.101 66.2794 423.398C42.0473 394.779 24.1053 362.379 12.918 327.03C1.2241 290.269 -2.53315 251.971 1.68848 213.216L2.82832 202.582L13.3402 205.199C30.3533 209.436 47.5354 211.471 64.4219 211.471C148.475 211.471 226.701 161.044 258.279 80.9168L260.897 74.3122L268.073 75.0599C274.237 75.683 280.4 76.0153 286.48 76.0153C341.065 76.0153 391.725 50.9678 424.654 6.89591L429.804 -0.0409546L437.192 4.4867V4.52824Z" fill="url(#paint0_linear_136_158)"/>
<path d="M90.3033 295.372L90.2735 295.401C76.9689 308.492 76.9689 329.717 90.2735 342.808L170.335 421.583C183.64 434.674 205.211 434.674 218.515 421.583L218.545 421.554C231.85 408.463 231.85 387.238 218.545 374.147L138.484 295.372C125.179 282.281 103.608 282.281 90.3033 295.372Z" fill="#8F4D3D"/>
<path d="M299.077 243.065C306.061 213.95 287.735 184.777 258.145 177.905C228.555 171.034 198.905 189.065 191.921 218.18C184.937 247.295 203.264 276.468 232.854 283.34C262.444 290.212 292.093 272.18 299.077 243.065Z" fill="#8F4D3D"/>
<path d="M402.068 217.493C402.068 196.558 419.292 179.611 440.569 179.611C447.451 179.611 453.868 181.397 459.44 184.512L472.738 171.428C486.036 158.343 486.036 137.076 472.738 123.991C459.44 110.907 437.825 110.907 424.527 123.991L329.456 217.535C330.891 223.06 331.736 228.792 331.736 234.732C331.736 273.238 300.031 304.433 260.897 304.433C254.86 304.433 249.034 303.602 243.419 302.19L170.554 373.884C157.256 386.969 157.256 408.236 170.554 421.321C183.852 434.405 205.467 434.405 218.765 421.321L407.05 236.061C403.883 230.578 402.068 224.223 402.068 217.493Z" fill="#8F4D3D"/>
<path d="M349.001 149.848C352.397 135.693 343.487 121.509 329.1 118.168C314.714 114.827 300.298 123.594 296.903 137.749C293.507 151.905 302.417 166.089 316.804 169.43C331.19 172.771 345.606 164.004 349.001 149.848Z" fill="#8F4D3D"/>
<path d="M480.828 228.289C484.223 214.133 475.313 199.95 460.926 196.609C446.54 193.268 432.124 202.034 428.729 216.19C425.333 230.346 434.243 244.529 448.63 247.87C463.017 251.211 477.432 242.445 480.828 228.289Z" fill="#8F4D3D"/>
<path d="M321.331 445.557C325.439 428.432 314.66 411.272 297.255 407.23C279.85 403.189 262.411 413.795 258.303 430.92C254.195 448.045 264.974 465.204 282.379 469.246C299.784 473.288 317.223 462.682 321.331 445.557Z" fill="#8F4D3D"/>
<path d="M474.451 362.731C481.435 333.616 463.109 304.443 433.518 297.572C403.928 290.7 374.279 308.732 367.295 337.846C360.311 366.961 378.637 396.134 408.227 403.006C437.818 409.878 467.467 391.846 474.451 362.731Z" fill="#8F4D3D"/>
</g>
</g>
<defs>
<linearGradient id="paint0_linear_136_158" x1="286.064" y1="-0.0409546" x2="286.064" y2="524.959" gradientUnits="userSpaceOnUse">
<stop stop-color="#F5D5A6"/>
<stop offset="1" stop-color="#EAA661"/>
</linearGradient>
<clipPath id="clip0_136_158">
<rect width="3060" height="525" fill="white"/>
</clipPath>
<clipPath id="clip1_136_158">
<rect width="572.115" height="525" fill="white"/>
</clipPath>
</defs>
</svg>
