<svg width="356" height="94" viewBox="0 0 356 94" fill="none" xmlns="http://www.w3.org/2000/svg">
<path d="M132.801 75.387C127.176 75.387 122.261 74.109 118.057 71.552C113.852 68.995 110.585 65.444 108.256 60.898C105.926 56.296 104.761 50.955 104.761 44.8754C104.761 38.7389 105.954 33.3411 108.341 28.682C110.784 23.966 114.222 20.3012 118.653 17.6876C123.142 15.0171 128.455 13.6818 134.591 13.6818C141.58 13.6818 147.375 15.358 151.978 18.7103C156.58 22.0626 159.563 26.6933 160.927 32.6025H148.739C147.83 29.8184 146.182 27.6593 143.796 26.1251C141.409 24.5342 138.341 23.7388 134.591 23.7388C128.625 23.7388 124.023 25.6422 120.784 29.4491C117.545 33.1991 115.926 38.3696 115.926 44.9606C115.926 51.5516 117.517 56.665 120.699 60.302C123.938 63.881 128.313 65.671 133.824 65.671C139.222 65.671 143.284 64.222 146.012 61.324C148.796 58.37 150.472 54.5062 151.04 49.7334H135.955V41.5515H162.035V74.364H151.978L151.125 66.523C149.194 69.364 146.779 71.552 143.881 73.086C140.983 74.62 137.29 75.387 132.801 75.387Z" fill="white"/>
<path d="M168.123 74.364V13H179.032V74.364H168.123Z" fill="white"/>
<path d="M206.202 75.387C202.111 75.387 198.418 74.45 195.122 72.575C191.884 70.7 189.299 68.114 187.367 64.819C185.492 61.466 184.554 57.603 184.554 53.2277C184.554 48.8527 185.52 45.0174 187.452 41.7219C189.384 38.3696 191.969 35.7559 195.208 33.8809C198.503 32.0059 202.196 31.0684 206.287 31.0684C210.321 31.0684 213.958 32.0059 217.197 33.8809C220.492 35.7559 223.077 38.3696 224.952 41.7219C226.884 45.0174 227.85 48.8527 227.85 53.2277C227.85 57.603 226.884 61.466 224.952 64.819C223.077 68.114 220.492 70.7 217.197 72.575C213.901 74.45 210.236 75.387 206.202 75.387ZM206.202 65.927C209.043 65.927 211.515 64.876 213.617 62.773C215.719 60.614 216.77 57.432 216.77 53.2277C216.77 49.0231 215.719 45.8697 213.617 43.7674C211.515 41.6083 209.071 40.5287 206.287 40.5287C203.39 40.5287 200.89 41.6083 198.787 43.7674C196.742 45.8697 195.719 49.0231 195.719 53.2277C195.719 57.432 196.742 60.614 198.787 62.773C200.89 64.876 203.361 65.927 206.202 65.927Z" fill="white"/>
<path d="M250.814 75.387C247.064 75.387 243.769 74.79 240.928 73.597C238.087 72.347 235.814 70.643 234.11 68.484C232.405 66.324 231.382 63.824 231.042 60.983H242.036C242.377 62.631 243.286 64.052 244.763 65.245C246.297 66.381 248.258 66.949 250.644 66.949C253.03 66.949 254.763 66.467 255.843 65.501C256.979 64.535 257.548 63.427 257.548 62.177C257.548 60.358 256.752 59.137 255.161 58.512C253.57 57.83 251.354 57.177 248.513 56.552C246.695 56.154 244.848 55.671 242.973 55.103C241.098 54.5346 239.365 53.8243 237.775 52.972C236.24 52.0629 234.99 50.9266 234.025 49.5629C233.059 48.1424 232.576 46.4095 232.576 44.364C232.576 40.6139 234.053 37.4605 237.007 34.9037C240.019 32.3468 244.223 31.0684 249.621 31.0684C254.621 31.0684 258.599 32.2332 261.553 34.5627C264.565 36.8923 266.354 40.1026 266.923 44.1935H256.61C255.985 41.0685 253.627 39.506 249.536 39.506C247.491 39.506 245.9 39.9037 244.763 40.6992C243.684 41.4946 243.144 42.489 243.144 43.6822C243.144 44.9322 243.968 45.9265 245.616 46.6652C247.263 47.4038 249.451 48.0856 252.178 48.7106C255.133 49.3925 257.832 50.1595 260.275 51.0118C262.775 51.8073 264.763 53.0289 266.241 54.6766C267.718 56.268 268.457 58.569 268.457 61.58C268.514 64.194 267.832 66.552 266.411 68.654C264.991 70.756 262.945 72.404 260.275 73.597C257.604 74.79 254.451 75.387 250.814 75.387Z" fill="white"/>
<path d="M291.331 75.387C287.581 75.387 284.286 74.79 281.445 73.597C278.604 72.347 276.331 70.643 274.626 68.484C272.922 66.324 271.899 63.824 271.558 60.983H282.553C282.894 62.631 283.803 64.052 285.28 65.245C286.814 66.381 288.774 66.949 291.161 66.949C293.547 66.949 295.28 66.467 296.36 65.501C297.496 64.535 298.064 63.427 298.064 62.177C298.064 60.358 297.269 59.137 295.678 58.512C294.087 57.83 291.871 57.177 289.03 56.552C287.212 56.154 285.365 55.671 283.49 55.103C281.615 54.5346 279.882 53.8243 278.291 52.972C276.757 52.0629 275.507 50.9266 274.541 49.5629C273.575 48.1424 273.092 46.4095 273.092 44.364C273.092 40.6139 274.57 37.4605 277.524 34.9037C280.536 32.3468 284.74 31.0684 290.138 31.0684C295.138 31.0684 299.115 32.2332 302.07 34.5627C305.081 36.8923 306.871 40.1026 307.439 44.1935H297.127C296.502 41.0685 294.144 39.506 290.053 39.506C288.007 39.506 286.416 39.9037 285.28 40.6992C284.2 41.4946 283.661 42.489 283.661 43.6822C283.661 44.9322 284.484 45.9265 286.132 46.6652C287.78 47.4038 289.967 48.0856 292.695 48.7106C295.649 49.3925 298.348 50.1595 300.791 51.0118C303.292 51.8073 305.28 53.0289 306.757 54.6766C308.235 56.268 308.973 58.569 308.973 61.58C309.03 64.194 308.348 66.552 306.928 68.654C305.507 70.756 303.462 72.404 300.791 73.597C298.121 74.79 294.968 75.387 291.331 75.387Z" fill="white"/>
<path d="M317.413 93.115L327.214 71.552H324.657L308.208 32.0911H320.055L331.902 61.836L344.26 32.0911H355.851L329.004 93.115H317.413Z" fill="white"/>
<path d="M24.4612 67.535L67.461 24.5354L60.39 17.4644L17.3901 60.464L24.4612 67.535Z" fill="#0053EA"/>
<path d="M41.4612 24.5354L24.4612 41.5354L17.3901 34.4644L34.3901 17.4644L41.4612 24.5354Z" fill="#0053EA"/>
<path d="M50.4612 67.535L67.461 50.5354L60.39 43.4644L43.3901 60.464L50.4612 67.535Z" fill="#0053EA"/>
<path fill-rule="evenodd" clip-rule="evenodd" d="M0.925797 84V0H84.926V84H0.925797ZM10.9258 10H74.926V74H10.9258V10Z" fill="#0053EA"/>
</svg>
